<svg width="23" height="22" viewBox="0 0 23 22" fill="none" xmlns="http://www.w3.org/2000/svg">
<path d="M8.7 18.1941C4.34835 18.1941 1 18.1941 1 18.1941C1 15.7381 2.4 14.6856 5.2 14.6856V8.72124C5.2 5.21279 7.3 2.40602 11.15 2.40603C15 2.40604 17.8 5.21279 17.8 8.72124V14.6856C20.6 14.6856 22 15.7381 22 18.1941C19.693 18.1941 16.9874 18.1941 14.3 18.1941M8.7 18.1941C8.7 20.65 10.1 21.0008 11.5 21.0008C12.9 21.0008 14.3 20.65 14.3 18.1941M8.7 18.1941C10.4548 18.1941 12.3727 18.1941 14.3 18.1941M10.45 2.40603C10.6461 1.37087 10.8596 0.970035 11.15 1.00265C11.4392 0.975444 11.6408 1.38906 11.85 2.40603" stroke="white" stroke-width="2" stroke-linecap="round"/>
</svg>
