<svg width="12" height="12" viewBox="0 0 12 12" fill="none" xmlns="http://www.w3.org/2000/svg">
<path fill-rule="evenodd" clip-rule="evenodd" d="M10.2395 4.76216L11.7814 5.01416C11.9077 5.0348 12.0002 5.14384 12 5.27168V6.7064C12 6.83296 11.9092 6.94144 11.7842 6.96336L10.2403 7.2344C10.1508 7.54384 10.0279 7.84176 9.8732 8.12344L10.7858 9.39056C10.8607 9.49432 10.849 9.63704 10.7586 9.7276L9.74432 10.7426C9.65456 10.8321 9.51368 10.8449 9.40984 10.7716L8.13016 9.87392C7.84792 10.031 7.54816 10.1562 7.23536 10.2482L6.96272 11.7848C6.9408 11.9092 6.83248 12 6.706 12H5.27104C5.14352 12 5.03472 11.9079 5.01408 11.7824L4.75944 10.2534C4.4472 10.1632 4.14584 10.0388 3.86068 9.882L2.59014 10.7718C2.48657 10.8446 2.34542 10.8321 2.25594 10.7426L1.24158 9.7276C1.15158 9.63704 1.13984 9.49488 1.21393 9.39128L2.11166 8.13576C1.9533 7.84928 1.82755 7.54696 1.7365 7.23312L0.21524 6.96336C0.0907921 6.9412 0 6.83296 0 6.7064V5.27168C0 5.14432 0.0923522 5.03528 0.218104 5.0144L1.73937 4.76112C1.83094 4.44656 1.95669 4.14418 2.11453 3.85852L1.22776 2.58991C1.15497 2.48634 1.1675 2.34548 1.25698 2.256L2.27106 1.242C2.3616 1.152 2.50326 1.14 2.60736 1.21434L3.86746 2.11434C4.15054 1.95939 4.45112 1.836 4.76416 1.746L5.0136 0.218872C5.03416 0.0926081 5.1432 0 5.27104 0H6.706C6.8328 0 6.94104 0.091304 6.96296 0.216L7.23192 1.75148C7.5432 1.842 7.8432 1.9667 8.12728 2.12374L9.3908 1.21566C9.49464 1.14078 9.63712 1.15252 9.7276 1.24278L10.7422 2.25678C10.8318 2.34652 10.8442 2.48766 10.7714 2.59122L9.87136 3.87391C10.0258 4.15539 10.1492 4.4528 10.2395 4.76216ZM4.1738 6C4.1738 7.00856 4.99144 7.82608 6.00008 7.82608C7.00864 7.82608 7.82632 7.00856 7.82632 6C7.82632 4.99152 7.00864 4.17394 6.00008 4.17394C4.99144 4.17394 4.1738 4.99152 4.1738 6Z" fill="#737373"/>
</svg>
